HIERARCHY
ROOT Hips
{
	OFFSET 0.000000 0.000000 0.000000
	CHANNELS 6 Xposition Yposition Zposition Xrotation Yrotation Zrotation
	JOINT LeftUpLeg_virtual
	{
		OFFSET 0.000000 0.000000 0.000000
		CHANNELS 3 Xrotation Yrotation Zrotation
		JOINT LeftUpLeg
		{
			OFFSET 13.026900 -6.336304 -1.092800
			CHANNELS 3 Xrotation Yrotation Zrotation
			JOINT LeftLeg
			{
				OFFSET 0.524474 -46.096886 9.782700
				CHANNELS 3 Xrotation Yrotation Zrotation
				JOINT LeftFoot
				{
					OFFSET -0.524474 -53.427422 -12.948200
					CHANNELS 3 Xrotation Yrotation Zrotation
					JOINT LeftToeBase
					{
						OFFSET 0.192200 -14.009700 16.364100
						CHANNELS 3 Xrotation Yrotation Zrotation
						JOINT LeftToe_End
						{
							OFFSET -1.784700 -0.561700 9.474800
							CHANNELS 3 Xrotation Yrotation Zrotation
							End Site
							{
								OFFSET 0 0 0
							}
						}
					}
				}
			}
		}
	}
	JOINT RightUpLeg_virtual
	{
		OFFSET 0.000000 0.000000 0.000000
		CHANNELS 3 Xrotation Yrotation Zrotation
		JOINT RightUpLeg
		{
			OFFSET -12.883000 -6.336304 -1.092800
			CHANNELS 3 Xrotation Yrotation Zrotation
			JOINT RightLeg
			{
				OFFSET -0.524587 -46.096825 9.782800
				CHANNELS 3 Xrotation Yrotation Zrotation
				JOINT RightFoot
				{
					OFFSET 0.524587 -53.427383 -12.948300
					CHANNELS 3 Xrotation Yrotation Zrotation
					JOINT RightToeBase
					{
						OFFSET -0.192200 -14.009700 16.364100
						CHANNELS 3 Xrotation Yrotation Zrotation
						JOINT RightToe_End
						{
							OFFSET 1.784700 -0.561700 9.474800
							CHANNELS 3 Xrotation Yrotation Zrotation
							End Site
							{
								OFFSET 0 0 0
							}
						}
					}
				}
			}
		}
	}
	JOINT Spine_virtual
	{
		OFFSET 0.000000 0.000000 0.000000
		CHANNELS 3 Xrotation Yrotation Zrotation
		JOINT Spine
		{
			OFFSET 0.072000 7.257294 -0.789700
			CHANNELS 3 Xrotation Yrotation Zrotation
			JOINT Spine1
			{
				OFFSET 0.000000 12.508769 -0.658067
				CHANNELS 3 Xrotation Yrotation Zrotation
				JOINT Spine1_split
				{
					OFFSET 0.000000 12.508769 -0.658067
					CHANNELS 3 Xrotation Yrotation Zrotation
					JOINT Spine2
					{
						OFFSET 0.000000 12.508769 -0.658067
						CHANNELS 3 Xrotation Yrotation Zrotation
						JOINT Neck_virtual
						{
							OFFSET 0.000000 0.000000 0.000000
							CHANNELS 3 Xrotation Yrotation Zrotation
							JOINT Neck
							{
								OFFSET 0.000000 14.033295 7.520400
								CHANNELS 3 Xrotation Yrotation Zrotation
								JOINT Head
								{
									OFFSET 0.000000 8.198502 5.703100
									CHANNELS 3 Xrotation Yrotation Zrotation
									JOINT HeadTop_End
									{
										OFFSET 0.000000 17.760803 13.332701
										CHANNELS 3 Xrotation Yrotation Zrotation
										End Site
										{
											OFFSET 0 0 0
										}
									}
								}
							}
						}
						JOINT LeftShoulder_virtual
						{
							OFFSET 0.000000 0.000000 0.000000
							CHANNELS 3 Xrotation Yrotation Zrotation
							JOINT LeftShoulder
							{
								OFFSET 6.292450 5.785301 -0.669000
								CHANNELS 3 Xrotation Yrotation Zrotation
								JOINT LeftShoulder_split
								{
									OFFSET 6.292450 5.785301 -0.669000
									CHANNELS 3 Xrotation Yrotation Zrotation
									JOINT LeftArm
									{
										OFFSET 13.907140 -6.093903 1.965100
										CHANNELS 3 Xrotation Yrotation Zrotation
										JOINT LeftForeArm
										{
											OFFSET 34.140198 0.000000 0.000000
											CHANNELS 3 Xrotation Yrotation Zrotation
											JOINT LeftHand
											{
												OFFSET 40.960209 0.000000 0.000000
												CHANNELS 3 Xrotation Yrotation Zrotation
												End Site
												{
													OFFSET 0 0 0
												}
											}
										}
									}
								}
							}
						}
						JOINT RightShoulder_virtual
						{
							OFFSET 0.000000 0.000000 0.000000
							CHANNELS 3 Xrotation Yrotation Zrotation
							JOINT RightShoulder
							{
								OFFSET -6.292450 5.785301 -0.669000
								CHANNELS 3 Xrotation Yrotation Zrotation
								JOINT RightShoulder_split
								{
									OFFSET -6.292450 5.785301 -0.669000
									CHANNELS 3 Xrotation Yrotation Zrotation
									JOINT RightArm
									{
										OFFSET -13.907140 -6.093903 1.965100
										CHANNELS 3 Xrotation Yrotation Zrotation
										JOINT RightForeArm
										{
											OFFSET -34.140198 0.000000 0.000000
											CHANNELS 3 Xrotation Yrotation Zrotation
											JOINT RightHand
											{
												OFFSET -40.960209 0.000000 0.000000
												CHANNELS 3 Xrotation Yrotation Zrotation
												End Site
												{
													OFFSET 0 0 0
												}
											}
										}
									}
								}
							}
						}
					}
				}
			}
		}
	}
}
MOTION
Frames: 4
Frame Time: 0.03333333
-28.580751 115.853981 -13.250294 0.000000 0.000000 0.000000 -173.085326 -50.066697 -169.919643 -98.274462 -28.284848 7.565879 83.176896 -1.508247 -34.255168 43.358864 -9.674047 -18.973760 -4.243176 -0.501554 -0.773379 0.000000 0.000000 0.000000 -173.687134 -46.493443 -171.057225 -17.379710 30.402989 5.499637 38.398009 10.575535 -5.488894 -10.004843 15.981534 0.020763 -1.677614 0.987260 1.780266 0.000000 0.000000 0.000000 -171.162123 -49.570723 -166.753454 18.866016 5.541875 2.116548 6.759309 0.066778 0.025932 0.779606 -2.235733 0.773698 0.000000 0.000000 0.000000 10.371867 0.211994 -0.556481 3.855463 38.669369 5.987013 9.030565 47.631823 -31.293946 0.000000 0.000000 0.000000 9.597352 -0.165989 -0.409531 -2.256883 -12.710314 11.529406 3.445862 -0.195028 -1.712693 -54.393137 -49.950597 -41.693305 -96.283107 -26.143089 -90.675228 0.000000 0.000000 0.000000 7.825026 -0.438407 -0.616867 -3.959584 19.966994 3.952313 3.566748 -2.042708 4.292707 -54.877264 14.348050 26.712639 128.709806 41.415559 -124.102502 0.000000 0.000000 0.000000 
-30.158787 117.999329 -14.783268 0.000000 0.000000 0.000000 -172.290142 -46.522184 -167.960772 -103.949100 -25.274135 8.704421 81.793462 -4.124702 -32.825128 40.735661 -13.330879 -23.294683 -8.730817 -0.663610 0.152674 0.000000 0.000000 0.000000 -173.133711 -41.786701 -169.347587 -14.142042 32.567018 4.302061 36.744697 11.041806 -5.189107 -9.945062 17.460487 -0.485492 -2.841319 1.058166 1.667758 0.000000 0.000000 0.000000 -171.281979 -46.110856 -166.207804 19.506460 6.201643 1.770099 7.350809 0.318998 -0.330045 0.546733 -2.075081 0.852738 0.000000 0.000000 0.000000 10.983544 0.412248 -1.058769 5.327115 39.094490 5.251411 8.140837 48.722499 -31.556690 0.000000 0.000000 0.000000 10.316750 0.056070 -0.762151 -1.759231 -12.349563 16.121193 3.520983 -0.670185 -1.671640 -66.076104 -46.646681 -47.597263 -95.906682 -27.852443 -90.588389 0.000000 0.000000 0.000000 8.423254 -0.265536 -1.023892 -2.945822 20.567105 -0.170630 3.814787 -2.485589 4.409892 -61.692236 13.234626 25.848057 130.583627 41.047019 -126.715869 0.000000 0.000000 0.000000 
-31.389877 119.821266 -15.991344 0.000000 0.000000 0.000000 -171.612888 -43.528570 -165.825546 -108.956762 -23.213439 9.714476 81.921132 -7.679766 -31.263050 38.982919 -16.869095 -26.980671 -12.354303 -0.969413 1.340290 0.000000 0.000000 0.000000 -172.718696 -38.185532 -167.642731 -11.215105 34.488193 2.505515 35.902732 11.391726 -4.770532 -9.490610 18.553316 -0.441298 -4.699241 1.085905 1.564337 0.000000 0.000000 0.000000 -171.294956 -43.316155 -165.332775 20.085385 6.688399 1.568859 7.811907 0.486619 -0.702176 0.503047 -2.050986 0.983996 0.000000 0.000000 0.000000 11.487115 0.509194 -1.552719 6.868377 39.415000 4.277709 7.422820 49.634739 -31.892230 0.000000 0.000000 0.000000 10.914098 0.177557 -1.135600 -1.346622 -12.082407 20.532437 3.857386 -0.984249 -1.666634 -74.945521 -42.491758 -51.917152 -95.585478 -29.429711 -90.379809 0.000000 0.000000 0.000000 8.893938 -0.175500 -1.416206 -1.885351 21.067862 -4.324456 4.022360 -3.002492 4.327314 -67.509255 11.618773 23.984230 132.352797 41.105308 -129.057900 0.000000 0.000000 0.000000 
-32.247913 120.979759 -16.847500 0.000000 0.000000 0.000000 -171.047225 -41.405925 -163.783019 -112.407715 -21.784953 10.405761 82.712874 -10.063818 -30.620401 37.139782 -17.777943 -28.975773 -13.082893 -1.135121 2.083270 0.000000 0.000000 0.000000 -172.426650 -35.724458 -165.994825 -8.818486 36.033541 0.350229 35.942580 11.600319 -4.232803 -9.113378 19.163726 0.050929 -6.433118 1.078369 1.526271 0.000000 0.000000 0.000000 -171.076896 -41.291198 -163.899951 20.597395 7.010154 1.452514 8.124580 0.542173 -1.032983 0.465784 -2.322504 0.977634 0.000000 0.000000 0.000000 11.883332 0.501280 -1.978175 8.421692 39.621818 3.117835 6.824537 50.347531 -32.229491 0.000000 0.000000 0.000000 11.344047 0.198985 -1.461981 -0.992490 -12.001293 24.648549 4.357415 -1.230418 -1.708349 -81.249246 -38.392111 -54.561983 -95.460466 -30.907501 -90.295422 0.000000 0.000000 0.000000 9.178845 -0.165550 -1.753399 -0.848602 21.488569 -8.172139 4.232543 -3.381798 4.298401 -72.360260 9.467144 21.257714 134.315410 41.349351 -131.405436 0.000000 0.000000 0.000000 
